<?xml version="1.0" encoding="UTF-8" standalone="no"?>
<!-- Created with Inkscape (http://www.inkscape.org/) -->

<svg
   xmlns:dc="http://purl.org/dc/elements/1.1/"
   xmlns:cc="http://creativecommons.org/ns#"
   xmlns:rdf="http://www.w3.org/1999/02/22-rdf-syntax-ns#"
   xmlns:svg="http://www.w3.org/2000/svg"
   xmlns="http://www.w3.org/2000/svg"
   xmlns:sodipodi="http://sodipodi.sourceforge.net/DTD/sodipodi-0.dtd"
   xmlns:inkscape="http://www.inkscape.org/namespaces/inkscape"
   width="300"
   height="300"
   viewBox="0 0 300 300"
   id="svg2"
   version="1.1"
   inkscape:version="0.91 r13725"
   sodipodi:docname="diff-crypt.svg">
  <defs
     id="defs4" />
  <sodipodi:namedview
     id="base"
     pagecolor="#ffffff"
     bordercolor="#666666"
     borderopacity="1.0"
     inkscape:pageopacity="0.0"
     inkscape:pageshadow="2"
     inkscape:zoom="1.81"
     inkscape:cx="103.14882"
     inkscape:cy="197.649"
     inkscape:document-units="px"
     inkscape:current-layer="layer1"
     showgrid="false"
     units="px"
     inkscape:window-width="1920"
     inkscape:window-height="1031"
     inkscape:window-x="0"
     inkscape:window-y="25"
     inkscape:window-maximized="1" />
  <metadata
     id="metadata7">
    <rdf:RDF>
      <cc:Work
         rdf:about="">
        <dc:format>image/svg+xml</dc:format>
        <dc:type
           rdf:resource="http://purl.org/dc/dcmitype/StillImage" />
        <dc:title />
      </cc:Work>
    </rdf:RDF>
  </metadata>
  <g
     inkscape:label="Layer 1"
     inkscape:groupmode="layer"
     id="layer1"
     transform="translate(0,-752.36216)">
    <rect
       style="opacity:1;fill:#ff4242;fill-opacity:1;stroke:none;stroke-width:1.10800004;stroke-linecap:round;stroke-linejoin:round;stroke-miterlimit:4;stroke-dasharray:none;stroke-dashoffset:0;stroke-opacity:1"
       id="rect4133"
       width="280"
       height="280"
       x="10"
       y="762.36218"
       ry="17.127071" />
    <g
       id="g8084"
       transform="translate(-0.44198418,14.723901)">
      <rect
         ry="17.1271"
         y="807.61078"
         x="32.596684"
         height="170.16574"
         width="75.690605"
         id="rect8077"
         style="opacity:1;fill:none;fill-opacity:1;stroke:#ffffff;stroke-width:10;stroke-linecap:round;stroke-linejoin:round;stroke-miterlimit:4;stroke-dasharray:none;stroke-dashoffset:0;stroke-opacity:1" />
      <rect
         ry="17.1271"
         y="807.61078"
         x="192.59668"
         height="170.16574"
         width="75.690605"
         id="rect8077-1"
         style="opacity:1;fill:none;fill-opacity:1;stroke:#ffffff;stroke-width:10;stroke-linecap:round;stroke-linejoin:round;stroke-miterlimit:4;stroke-dasharray:none;stroke-dashoffset:0;stroke-opacity:1" />
      <g
         transform="translate(-16.574585,744.78205)"
         style="font-style:normal;font-weight:normal;font-size:16px;line-height:125%;font-family:'Gentium Basic', sans-serif;letter-spacing:0px;word-spacing:0px;fill:#000000;fill-opacity:1;stroke:none;stroke-width:1px;stroke-linecap:butt;stroke-linejoin:miter;stroke-opacity:1"
         id="flowRoot8094">
        <path
           d="m 181.16895,48.393658 7.22656,0 1.5625,1.5625 q -0.14649,0.537109 -0.43946,1.318359 -0.29296,0.732422 -0.63476,1.5625 -0.3418,0.78125 -0.68359,1.513672 -0.29297,0.683594 -0.43946,1.074219 l -11.03515,0 -4.83399,7.617187 16.50391,0 1.5625,1.5625 q -0.14649,0.53711 -0.43946,1.31836 -0.29296,0.732421 -0.63476,1.513671 -0.3418,0.78125 -0.68359,1.513672 -0.29297,0.683594 -0.43946,1.123047 l -20.36133,0 -5.85937,9.277344 q -0.43945,0.341797 -1.46484,0.732422 -1.0254,0.341797 -2.19727,0.683594 -1.17188,0.292968 -2.29492,0.585937 -1.12305,0.292969 -1.70899,0.488281 l -1.5625,-2.099609 6.10352,-9.667969 -7.12891,0 -1.5625,-1.5625 q 0.14649,-0.537109 0.39063,-1.269531 0.29297,-0.732422 0.63476,-1.513672 0.3418,-0.78125 0.63477,-1.464844 0.3418,-0.732422 0.58594,-1.220703 l 10.88867,0 4.83398,-7.617187 -16.40625,0 -1.5625,-1.5625 q 0.14649,-0.488282 0.39063,-1.220703 0.29297,-0.78125 0.63476,-1.5625 0.3418,-0.78125 0.63477,-1.464844 0.3418,-0.732422 0.58594,-1.220703 l 20.16601,0 5.81055,-9.179688 q 0.68359,-0.390625 1.66016,-0.732422 1.02539,-0.390625 2.05078,-0.683593 1.07422,-0.292969 2.09961,-0.53711 1.07421,-0.24414 1.80664,-0.439453 l 1.75781,1.953125 -6.15234,9.619141 z"
           style="font-style:normal;font-variant:normal;font-weight:bold;font-stretch:normal;font-size:100px;font-family:'Gentium Basic', sans-serif;-inkscape-font-specification:'Gentium Basic, sans-serif Bold';text-align:center;text-anchor:middle;fill:#ffffff;fill-opacity:1"
           id="path8089" />
      </g>
      <g
         transform="translate(-14.917127,923.59973)"
         style="font-style:normal;font-weight:normal;font-size:16px;line-height:125%;font-family:'Gentium Basic', sans-serif;letter-spacing:0px;word-spacing:0px;fill:#000000;fill-opacity:1;stroke:none;stroke-width:1px;stroke-linecap:butt;stroke-linejoin:miter;stroke-opacity:1"
         id="flowRoot8094-4">
        <path
           d="m 189.95801,64.604595 q -0.14649,0.53711 -0.43946,1.31836 -0.29296,0.732421 -0.63476,1.513671 -0.3418,0.78125 -0.68359,1.513672 -0.29297,0.683594 -0.43946,1.123047 l -36.47461,0 -1.5625,-1.5625 q 0.14649,-0.537109 0.39063,-1.269531 0.29297,-0.732422 0.63476,-1.513672 0.3418,-0.78125 0.63477,-1.464844 0.3418,-0.732422 0.58594,-1.220703 l 36.42578,0 1.5625,1.5625 z m 0,-14.648437 q -0.14649,0.537109 -0.43946,1.318359 -0.29296,0.732422 -0.63476,1.5625 -0.3418,0.78125 -0.68359,1.513672 -0.29297,0.683594 -0.43946,1.074219 l -36.47461,0 -1.5625,-1.5625 q 0.14649,-0.488282 0.39063,-1.220703 0.29297,-0.78125 0.63476,-1.5625 0.3418,-0.78125 0.63477,-1.464844 0.3418,-0.732422 0.58594,-1.220703 l 36.42578,0 1.5625,1.5625 z"
           style="font-style:normal;font-variant:normal;font-weight:bold;font-stretch:normal;font-size:100px;font-family:'Gentium Basic', sans-serif;-inkscape-font-specification:'Gentium Basic, sans-serif Bold';text-align:center;text-anchor:middle;fill:#ffffff;fill-opacity:1"
           id="path8097" />
      </g>
      <g
         transform="translate(-29.831451,759.43725)"
         style="font-style:normal;font-weight:normal;font-size:16px;line-height:125%;font-family:'Gentium Basic', sans-serif;letter-spacing:0px;word-spacing:0px;fill:#000000;fill-opacity:1;stroke:none;stroke-width:1px;stroke-linecap:butt;stroke-linejoin:miter;stroke-opacity:1"
         id="flowRoot8126">
        <path
           d="m 109.69727,116.67925 q 0,0.19531 -0.36622,0.58594 -0.34179,0.39062 -0.83007,0.80566 -0.48828,0.41504 -1.02539,0.78125 -0.5127,0.36621 -0.87891,0.53711 -0.58594,-0.51269 -1.19629,-0.8789 -0.58594,-0.39063 -1.14746,-0.63477 -0.53711,-0.24414 -1.02539,-0.36621 -0.46387,-0.12207 -0.78125,-0.12207 -0.63477,0 -1.36719,0.43945 -0.70801,0.41504 -1.342772,1.53809 -0.610351,1.12304 -1.025391,3.05176 -0.415039,1.92871 -0.415039,4.95605 l 0,2.09961 6.298832,0 0.708,0.70801 q -0.21972,0.34179 -0.56152,0.73242 -0.31738,0.39062 -0.65918,0.73242 -0.31738,0.3418 -0.63476,0.63477 -0.31739,0.26855 -0.53711,0.36621 -0.56153,-0.29297 -1.61133,-0.56153 -1.04981,-0.29296 -3.002932,-0.29296 l 0,17.8955 q 0,0.14649 0.244141,0.29297 0.268555,0.14649 0.878906,0.31738 0.610355,0.14649 1.562505,0.36622 0.97656,0.19531 2.41699,0.46386 l 0,1.04981 -12.18262,0 0,-1.04981 q 1.684571,-0.29297 2.539063,-0.708 0.878906,-0.43946 0.878906,-0.73243 l 0,-17.8955 -3.271484,0 -0.512696,-0.6836 1.904297,-1.63574 1.879883,0 0,-0.75684 q 0,-2.88086 0.390625,-4.83398 0.390625,-1.97754 1.049805,-3.32031 0.683593,-1.36719 1.5625,-2.27051 0.878906,-0.92774 1.855468,-1.70899 0.659183,-0.5371 1.440433,-0.95214 0.78125,-0.41504 1.53808,-0.70801 0.78125,-0.29297 1.46485,-0.43945 0.708,-0.14649 1.17187,-0.14649 0.75684,0 1.5625,0.29297 0.80567,0.29297 1.46485,0.68359 0.68359,0.36621 1.12304,0.75684 0.43946,0.39062 0.43946,0.61035 z"
           style="font-size:50px;text-align:center;text-anchor:middle;fill:#ffffff;fill-opacity:1"
           id="path8086" />
      </g>
      <g
         transform="translate(134.33114,759.43725)"
         style="font-style:normal;font-weight:normal;font-size:16px;line-height:125%;font-family:'Gentium Basic', sans-serif;letter-spacing:0px;word-spacing:0px;fill:#000000;fill-opacity:1;stroke:none;stroke-width:1px;stroke-linecap:butt;stroke-linejoin:miter;stroke-opacity:1"
         id="flowRoot8126-9">
        <path
           d="m 103.44727,116.67925 q 0,0.19531 -0.36622,0.58594 -0.34179,0.39062 -0.83007,0.80566 -0.48828,0.41504 -1.02539,0.78125 -0.5127,0.36621 -0.87891,0.53711 -0.585938,-0.51269 -1.196289,-0.8789 -0.585938,-0.39063 -1.147461,-0.63477 -0.53711,-0.24414 -1.025391,-0.36621 -0.463867,-0.12207 -0.78125,-0.12207 -0.634766,0 -1.367187,0.43945 -0.708008,0.41504 -1.342774,1.53809 -0.610351,1.12304 -1.025391,3.05176 -0.415039,1.92871 -0.415039,4.95605 l 0,2.09961 6.298829,0 0.708007,0.70801 q -0.219726,0.34179 -0.561523,0.73242 -0.317383,0.39062 -0.65918,0.73242 -0.317383,0.3418 -0.634765,0.63477 -0.317383,0.26855 -0.53711,0.36621 -0.561523,-0.29297 -1.611328,-0.56153 -1.049805,-0.29296 -3.00293,-0.29296 l 0,17.8955 q 0,0.14649 0.244141,0.29297 0.268555,0.14649 0.878906,0.31738 0.610352,0.14649 1.5625,0.36622 0.976563,0.19531 2.416992,0.46386 l 0,1.04981 -12.182617,0 0,-1.04981 q 1.684571,-0.29297 2.539063,-0.708 0.878906,-0.43946 0.878906,-0.73243 l 0,-17.8955 -3.271484,0 -0.512696,-0.6836 1.904297,-1.63574 1.879883,0 0,-0.75684 q 0,-2.88086 0.390625,-4.83398 0.390625,-1.97754 1.049805,-3.32031 0.683593,-1.36719 1.5625,-2.27051 0.878906,-0.92774 1.855468,-1.70899 0.65918,-0.5371 1.44043,-0.95214 0.78125,-0.41504 1.538086,-0.70801 0.78125,-0.29297 1.464844,-0.43945 0.708008,-0.14649 1.171875,-0.14649 0.756836,0 1.562498,0.29297 0.80567,0.29297 1.46485,0.68359 0.68359,0.36621 1.12304,0.75684 0.43946,0.39062 0.43946,0.61035 z"
           style="font-size:50px;text-align:center;text-anchor:middle;fill:#ffffff;fill-opacity:1"
           id="path8092" />
        <path
           d="m 106.57227,131.81597 q -0.19532,0.0977 -0.48829,0.19531 -0.26855,0.0977 -0.58593,0.1709 -0.31739,0.0732 -0.65918,0.12207 -0.31739,0.0244 -0.61035,0.0244 l -1.29395,-14.96582 q 0.26856,-0.14648 0.78125,-0.34179 0.5127,-0.21973 1.04981,-0.41504 0.56152,-0.19531 1.0498,-0.3418 0.48828,-0.1709 0.75684,-0.21972 l 1.0498,0.51269 -1.0498,15.25879 z"
           style="font-size:50px;text-align:center;text-anchor:middle;fill:#ffffff;fill-opacity:1"
           id="path8094" />
      </g>
    </g>
  </g>
</svg>
